<?xml version="1.0" standalone="no"?>
<!DOCTYPE svg PUBLIC "-//W3C//DTD SVG 20010904//EN"
 "http://www.w3.org/TR/2001/REC-SVG-20010904/DTD/svg10.dtd">
<svg version="1.0" xmlns="http://www.w3.org/2000/svg"
 width="300.000000pt" height="300.000000pt" viewBox="0 0 300.000000 300.000000"
 preserveAspectRatio="xMidYMid meet">
<metadata>
Created by potrace 1.14, written by Peter Selinger 2001-2017
</metadata>
<g transform="translate(0.000000,300.000000) scale(0.100000,-0.100000)"
fill="#000000" stroke="none">
<path d="M1010 2145 c-197 -34 -311 -110 -396 -262 -87 -155 -150 -427 -148
-638 2 -103 3 -111 29 -184 55 -151 209 -218 475 -207 74 3 149 8 165 11 82
16 166 37 221 55 44 15 74 19 110 14 27 -3 63 -7 79 -9 74 -6 172 -17 194 -20
13 -2 63 -7 111 -11 69 -5 87 -3 87 7 0 8 3 26 6 42 4 17 1 27 -6 28 -7 1
-123 2 -259 3 -137 0 -248 3 -249 6 -1 3 3 32 7 65 4 33 8 65 9 70 0 15 126
11 285 -10 19 -2 58 -7 85 -9 28 -3 74 -8 103 -11 41 -5 52 -3 52 8 0 8 3 29
6 46 l7 31 -262 0 -262 0 6 43 c13 92 20 112 41 110 10 -1 53 -4 94 -8 41 -3
86 -8 100 -10 48 -7 115 -14 185 -20 39 -4 77 -8 86 -11 21 -6 35 13 41 54 4
27 1 32 -16 33 -12 0 -130 1 -263 2 -134 0 -243 3 -243 6 1 12 27 126 31 136
4 11 57 11 124 2 22 -3 69 -8 105 -12 36 -3 79 -8 95 -10 17 -3 67 -7 113 -11
82 -7 82 -6 82 17 0 13 3 33 6 44 5 20 1 20 -255 20 l-261 0 0 27 0 27 -227
-2 -228 -2 -7 -40 c-4 -22 -10 -58 -13 -80 -4 -22 -12 -71 -19 -108 -7 -37
-10 -69 -7 -70 3 -2 24 -5 46 -6 22 -2 41 -4 42 -5 2 -2 -4 -26 -13 -55 -11
-40 -21 -54 -42 -62 -30 -12 -196 -19 -212 -9 -7 5 -6 35 5 96 9 49 25 141 36
204 11 63 22 126 24 140 3 14 10 53 16 87 13 76 41 107 107 122 44 10 283 8
327 -2 12 -3 36 -7 55 -9 33 -3 35 -1 55 50 l20 54 60 -6 c97 -10 147 -16 190
-21 22 -3 69 -8 105 -11 36 -3 74 -7 86 -9 11 -2 51 -6 88 -10 76 -8 86 -3 86
51 l0 32 -272 0 c-150 0 -287 1 -304 1 l-32 1 31 80 30 81 61 -6 c34 -3 72 -8
86 -10 24 -3 77 -9 185 -20 28 -3 81 -9 120 -13 114 -14 119 -13 126 33 4 22
6 41 5 42 -1 1 -165 4 -366 6 -201 3 -378 8 -395 11 -59 13 -299 14 -375 1z"/>
<path d="M111 2126 c2 -2 40 -7 84 -11 44 -3 89 -8 100 -10 11 -2 45 -7 75 -9
131 -13 178 -18 233 -25 53 -7 62 -6 103 20 24 16 44 31 44 34 0 3 -145 5
-322 5 -177 0 -319 -2 -317 -4z"/>
<path d="M2210 2122 c0 -5 -11 -69 -25 -143 -13 -74 -27 -150 -30 -169 -3 -19
-10 -57 -15 -85 -5 -27 -12 -66 -14 -85 -3 -19 -8 -46 -11 -60 -6 -32 -23
-125 -30 -170 -3 -19 -7 -46 -10 -60 -3 -14 -7 -41 -10 -60 -3 -19 -12 -66
-20 -105 -7 -38 -16 -88 -19 -109 -4 -21 -8 -48 -11 -60 -2 -12 -7 -39 -10
-61 -3 -22 -8 -48 -11 -57 -5 -17 8 -18 185 -18 172 0 190 2 195 18 3 9 21
110 40 225 19 114 37 211 40 215 2 4 75 7 161 7 86 0 158 2 160 5 3 5 27 133
45 240 4 25 4 47 0 50 -5 3 -76 4 -159 4 -83 -1 -151 2 -151 7 0 4 5 42 11 84
l11 75 177 0 177 0 48 148 c27 81 51 153 54 160 3 9 -78 12 -387 12 -215 0
-391 -4 -391 -8z"/>
<path d="M0 1929 c0 -13 12 -17 80 -23 36 -4 81 -9 100 -11 19 -2 63 -7 98
-10 35 -4 71 -8 80 -10 9 -1 52 -6 94 -10 l77 -6 20 39 20 40 -284 0 c-157 0
-285 -4 -285 -9z"/>
<path d="M3 1732 c-7 -18 -5 -19 62 -26 33 -3 105 -11 160 -16 142 -15 209
-22 215 -22 22 -1 29 6 35 32 4 16 7 33 8 37 1 4 -105 8 -237 8 -187 0 -240
-3 -243 -13z"/>
<path d="M1274 1743 c2 -3 39 -8 141 -18 28 -3 66 -8 85 -10 19 -2 62 -7 95
-10 33 -3 71 -8 85 -10 14 -2 57 -6 95 -10 39 -3 86 -8 105 -10 19 -2 64 -7
100 -10 36 -4 69 -8 74 -8 10 -2 23 35 25 68 1 20 -4 20 -403 21 -223 0 -404
-2 -402 -3z"/>
<path d="M0 1538 c0 -23 4 -25 94 -33 43 -4 86 -8 95 -10 9 -1 48 -6 86 -9 39
-4 88 -9 111 -12 41 -5 41 -5 47 32 4 21 4 40 1 43 -3 3 -102 6 -220 6 -196 0
-214 -1 -214 -17z"/>
<path d="M10 1362 c-6 -2 -10 -12 -10 -22 0 -15 11 -20 58 -25 31 -3 73 -8 92
-11 64 -8 225 -24 241 -24 11 0 16 11 17 40 2 22 -1 40 -5 41 -28 3 -385 3
-393 1z"/>
<path d="M0 1150 c0 -14 7 -20 25 -21 14 -1 28 -2 33 -3 4 -1 43 -6 87 -10 44
-5 87 -10 96 -11 9 -2 54 -7 99 -11 l83 -7 -6 33 c-4 18 -7 36 -7 41 0 5 -92
9 -205 9 -198 0 -205 -1 -205 -20z"/>
<path d="M3 966 c4 -11 5 -11 107 -20 41 -4 95 -9 120 -12 177 -20 281 -29
285 -26 2 3 -2 11 -10 19 -8 8 -19 22 -24 31 -8 15 -35 17 -245 17 -142 0
-235 -3 -233 -9z"/>
</g>
</svg>
