<?xml version="1.0" standalone="no"?>
<!DOCTYPE svg PUBLIC "-//W3C//DTD SVG 20010904//EN"
 "http://www.w3.org/TR/2001/REC-SVG-20010904/DTD/svg10.dtd">
<svg version="1.0" xmlns="http://www.w3.org/2000/svg"
 width="500.000000pt" height="500.000000pt" viewBox="0 0 500.000000 500.000000"
 preserveAspectRatio="xMidYMid meet">
<metadata>
Created by potrace 1.14, written by Peter Selinger 2001-2017
</metadata>
<g transform="translate(0.000000,500.000000) scale(0.100000,-0.100000)"
fill="#000000" stroke="none">
<path d="M0 4050 l0 -950 516 0 c486 0 515 -1 510 -17 -2 -10 -8 -42 -11 -71
-7 -52 -7 -53 -38 -47 -18 3 -225 25 -462 50 -237 24 -449 47 -472 50 l-43 6
0 -130 0 -131 490 0 c422 0 490 -2 490 -15 0 -7 -5 -37 -11 -65 -9 -43 -14
-50 -34 -50 -27 0 -867 88 -908 95 l-27 5 0 -1390 0 -1390 2500 0 2500 0 0
2500 0 2500 -2500 0 -2500 0 0 -950z m1380 -669 c-8 -5 -80 -23 -160 -41 -84
-18 -150 -38 -157 -47 -10 -13 -59 -9 -420 31 -224 26 -424 51 -443 55 -21 5
214 9 580 10 346 0 608 -3 600 -8z m2030 -5 c0 -17 -19 -118 -23 -123 -3 -2
-982 99 -1073 112 l-40 6 -22 -128 c-12 -70 -22 -131 -22 -135 0 -5 255 -8
566 -8 l566 0 -7 -47 c-13 -90 -13 -92 -48 -87 -75 11 -1080 115 -1082 112 -4
-4 -45 -239 -45 -256 0 -9 120 -12 566 -12 l566 0 -6 -47 c-10 -70 -15 -83
-34 -83 -9 0 -259 25 -555 56 -296 31 -539 55 -542 53 -4 -5 -45 -238 -45
-258 0 -8 149 -11 565 -11 487 0 565 -2 565 -15 0 -7 -5 -37 -11 -65 -9 -41
-14 -50 -32 -50 -12 0 -262 25 -555 56 -293 31 -534 55 -536 53 -5 -5 -46
-232 -46 -254 0 -13 62 -15 566 -15 l566 0 -6 -37 c-14 -81 -18 -93 -30 -93
-7 0 -245 25 -529 55 -284 30 -529 55 -545 55 -30 0 -30 -1 -46 -87 -8 -49
-18 -107 -22 -130 l-7 -43 567 0 c311 0 566 -3 566 -7 0 -24 -23 -133 -29
-133 -3 1 -253 27 -556 59 -302 33 -551 58 -552 57 -3 -2 -43 -241 -43 -255 0
-8 149 -11 566 -11 l567 0 -7 -32 c-4 -18 -9 -50 -13 -71 l-6 -38 -46 5 c-25
4 -260 29 -521 56 -261 27 -491 52 -511 55 -36 5 -37 4 -43 -33 -4 -20 -9 -49
-12 -64 l-6 -28 -300 0 -300 0 6 28 c3 15 51 288 106 607 55 319 103 592 106
608 l6 27 -246 0 c-134 0 -247 3 -249 8 -4 6 62 431 68 440 1 1 157 38 346 81
l344 80 788 0 c658 1 787 -1 787 -13z m1259 -3 c0 -10 -35 -119 -77 -243 l-77
-225 -262 -3 c-263 -2 -263 -2 -268 -25 -8 -37 -35 -201 -35 -214 0 -10 55
-13 240 -13 132 0 240 -3 240 -7 0 -10 -68 -391 -75 -420 l-5 -23 -243 0 -242
0 -59 -345 -59 -345 -284 0 c-191 0 -283 3 -283 10 0 14 320 1841 325 1858 4
9 129 12 585 12 546 0 580 -1 579 -17z m-3239 -868 c0 -7 -5 -37 -11 -65 -10
-47 -12 -50 -42 -49 -18 0 -295 29 -617 63 l-585 64 628 1 c542 1 627 -1 627
-14z m-54 -312 c-14 -80 -18 -93 -29 -93 -17 0 -1147 119 -1172 124 -11 2 256
4 594 5 l613 1 -6 -37z m-46 -250 c0 -3 -5 -35 -11 -70 l-11 -65 -47 6 c-25 4
-300 33 -610 66 -310 33 -566 62 -569 65 -3 3 277 5 621 5 345 0 627 -3 627
-7z m-50 -291 c0 -10 -22 -126 -25 -129 -3 -5 -1218 127 -1223 132 -3 3 277 5
621 5 345 0 627 -4 627 -8z"/>
</g>
</svg>
